<?xml version="1.0" standalone="no"?><!DOCTYPE svg PUBLIC "-//W3C//DTD SVG 1.1//EN" "http://www.w3.org/Graphics/SVG/1.1/DTD/svg11.dtd"><svg t="1536718074194" class="icon" style="" viewBox="0 0 1024 1024" version="1.1" xmlns="http://www.w3.org/2000/svg" p-id="9160" xmlns:xlink="http://www.w3.org/1999/xlink" width="200" height="200"><defs><style type="text/css"></style></defs><path d="M1011.798 521.58c0-41.953-3.404-72.568-10.772-104.316h-479.06v189.354h281.198c-5.667 47.057-36.282 117.925-104.315 165.544l-0.954 6.34 151.47 117.342 10.494 1.047c96.377-89.01 151.939-219.972 151.939-375.312" fill="#4285F4" p-id="9161"></path><path d="M521.966 1020.482c137.764 0 253.417-45.357 337.893-123.59l-161.01-124.73c-43.086 30.048-100.915 51.025-176.883 51.025-134.93 0-249.45-89.006-290.272-212.031l-5.984 0.508-157.5 121.891-2.06 5.726c83.905 166.678 256.254 281.201 455.816 281.201" fill="#34A853" p-id="9162"></path><path d="M231.694 611.156c-10.772-31.748-17.006-65.767-17.006-100.915 0-35.152 6.234-69.167 16.439-100.915l-0.285-6.761-159.475-123.85-5.217 2.482c-34.582 69.167-54.425 146.839-54.425 229.044s19.843 159.873 54.425 229.04l165.544-128.125" fill="#FBBC05" p-id="9163"></path><path d="M521.966 197.292c95.81 0 160.44 41.386 197.292 75.971l144.001-140.6C774.82 50.457 659.73 0 521.966 0 322.404 0 150.056 114.52 66.15 281.197l164.977 128.13c41.39-123.025 155.91-212.035 290.84-212.035" fill="#EB4335" p-id="9164"></path></svg>