<?xml version="1.0" standalone="no"?><!DOCTYPE svg PUBLIC "-//W3C//DTD SVG 1.1//EN" "http://www.w3.org/Graphics/SVG/1.1/DTD/svg11.dtd"><svg t="1536717894250" class="icon" style="" viewBox="0 0 1024 1024" version="1.1" xmlns="http://www.w3.org/2000/svg" p-id="4556" xmlns:xlink="http://www.w3.org/1999/xlink" width="200" height="200"><defs><style type="text/css"></style></defs><path d="M900.487938 632.363586c70.799443 13.257722 87.37732 35.331028 79.111279 105.329055-16.348901 138.255833-99.30698 225.633153-254.758926 268.245624-268.428806 73.592952-540.864695-84.354834-602.20742-352.852332-22.554156-98.82613-10.349724-197.17141 30.682811-291.09745 10.830575-24.821021 38.124538-49.596246 9.868874-78.447248-26.675728-27.248168-57.473028-13.234825-87.010958-4.190264-9.296434 2.839305-18.432585 6.182358-33.796887 11.44881 0.526645-38.628286 16.280208-62.189937 40.528788-82.912284 41.788157-35.766083 95.231204-56.854792 143.568081-47.214894 72.951819 14.471296 114.648386-23.126597 163.96986-60.678694C479.904444 31.827693 579.486195-8.769789 695.485541 1.625731c75.241581 6.7319 124.677544 40.231119 145.125119 112.198341 8.746891 30.751504 23.515856 38.925955 52.298165 37.712381 27.797711-1.236472 48.817727 12.593691 54.542132 40.666174 5.815996 28.667821-12.960053 46.184501-34.918871 59.991766-26.515445 16.692365-64.479699 20.149906-139.125942 13.738572-8.403427 10.303929 2.953793 12.753975 7.6936 16.55498 6.113665 4.900091 13.532494 8.151553 24.477557 14.471296-24.523352 7.166955-45.291493 12.822667-65.784864 19.302694-49.596246 15.68487-91.361506 28.942592-92.895647 100.222885-1.579936 73.272386-92.346104 132.600121-169.190518 128.386958 0.457952-4.007084 0-8.517915 1.648629-11.92966 13.738572-27.04209 56.717406-53.763613 17.676963-84.034267-29.766907-23.080801-56.923485 12.112841-79.111279 30.522528-91.201223 75.562148-127.402361 206.078585-90.125034 314.38433 37.872664 110.160452 137.385723 186.798788 268.95545 192.614784-83.599213-38.284822-139.034352-84.034267-167.63348-154.192577-29.05708-71.257395-28.438845-142.858255 5.609917-213.932469-10.532905 109.175855-11.723582 213.589004 109.633808 267.81057 148.491069 40.597481 250.866331-22.897621 278.77853-170.747556 7.853884-42.085827 16.990034-87.583399 77.348162-83.003875z" fill="#2577E2" p-id="4557"></path><path d="M900.487938 632.363586c-50.374765 12.387613-57.495925 50.695332-61.11375 94.956433-12.135739 148.513967-161.725894 228.289277-295.081635 158.817896 160.741296-2.472943 235.227256-84.309039 219.290512-240.425016-4.167367-40.80356 4.373446-75.562148 51.794417-83.690803 54.610825-9.548308 81.103372 17.379294 85.110456 70.34149z" fill="#FD9814" p-id="4558"></path><path d="M700.065065 116.365708c-26.813114 50.649537-26.813114 50.649537 9.43382 96.627958-34.209045 3.022486-53.69492-14.425501-58.480523-43.024629-4.602422-27.980892 13.37221-45.085415 49.046703-53.603329z" fill="#D0E1F8" p-id="4559"></path></svg>