<?xml version="1.0" standalone="no"?><!DOCTYPE svg PUBLIC "-//W3C//DTD SVG 1.1//EN" "http://www.w3.org/Graphics/SVG/1.1/DTD/svg11.dtd"><svg t="1536718048339" class="icon" style="" viewBox="0 0 1024 1024" version="1.1" xmlns="http://www.w3.org/2000/svg" p-id="8327" xmlns:xlink="http://www.w3.org/1999/xlink" width="200" height="200"><defs><style type="text/css"></style></defs><path d="M796.5 961H650.9L961 650.9v145.7c0 90.8-73.6 164.4-164.5 164.4z m0-898C887.4 63 961 136.6 961 227.5V314L710 63h86.5z m-52.6 325.6c0 59.3-22.1 113.4-58.5 154.6l-6.3 6.9c-70.6 78.1-125.5 170.6-159.8 272.7h-0.4c-1.7 2.9-4.9 4.9-8.5 4.9-3.6 0-6.8-2-8.5-4.9h-0.4c-34.3-102-89.2-194.6-159.8-272.7-2.2-2.3-4.3-4.6-6.3-6.9l-1.3-1.4 1.3 1.4c-36.4-41.2-58.5-95.3-58.5-154.6 0-49.5 15.4-95.4 41.7-133.2 42.2-60.6 112.4-100.3 191.8-100.3 79.5 0 149.6 39.7 191.8 100.3 26.3 37.8 41.7 83.7 41.7 133.2zM485.7 290h-29.6v54.3h-33.7c-35 0-63.3 28.4-63.3 63.3v14.8c0 35 28.3 63.3 63.3 63.3h60V484h3.3V290z m157.9 55.9h-31.2v111.8h-36.2c-14.5 0-26.3-11.8-26.3-26.3v-85.5h-31.2v95.4c0 23.6 19.1 42.8 42.8 42.8h82.2V345.9h-0.1z m-246.7 75.6v-13.2c0-18.2 14.7-32.9 32.9-32.9h26.3v78.9h-26.3c-18.2 0.1-32.9-14.6-32.9-32.8z m-85.1-173.9c-16.8 24.2-29.1 51.3-36.1 80L88.2 140.1C117.3 93.8 168.8 63 227.5 63h273.2l96.8 96.8c-27-10.5-56.4-16.2-87.2-16.2-82.2 0-154.9 41.1-198.5 104zM329.2 546l-1.3-1.4 1.3 1.4c2.1 2.4 4.3 4.8 6.6 7.2 24.3 26.9 46.8 55.6 67.3 85.6L120.5 921.4C85.3 891.2 63 846.5 63 796.5v-542l224 224c10.2 24.7 24.5 47.5 42.2 67.5z m422.9-160.3c0-30.9-5.8-60.5-16.4-87.7L955 517.3 710.2 762.1 605.4 657.3c23.7-36.9 50.3-71.7 79.6-104.1 2.2-2.3 4.4-4.7 6.6-7.2 37.6-42.7 60.5-98.8 60.5-160.3zM501.2 835.8h0.4c1.8 3 5 5.1 8.8 5.1 3.8 0 7-2.1 8.8-5.1h0.4c10.2-30.5 22.3-60.1 35.9-88.9l84.9 84.9L511.3 961H227.5c-13.6 0-26.8-1.7-39.4-4.8l254.1-254.1c23.7 42.7 43.4 87.4 59 133.7z" fill="#B3CE7D" p-id="8328"></path><path d="M743.9 388.6c0 59.3-22.1 113.4-58.5 154.6l-6.3 6.9c-70.6 78.1-125.5 170.6-159.8 272.7h-0.4c-1.7 2.9-4.9 4.9-8.5 4.9-3.6 0-6.8-2-8.5-4.9h-0.4c-34.3-102-89.2-194.6-159.8-272.7-2.2-2.3-4.3-4.6-6.3-6.9l-1.3-1.4 1.3 1.4c-36.4-41.2-58.5-95.3-58.5-154.6 0-49.5 15.4-95.4 41.7-133.2 42.2-60.6 112.4-100.3 191.8-100.3 79.5 0 149.6 39.7 191.8 100.3 26.3 37.8 41.7 83.7 41.7 133.2zM485.7 290h-29.6v54.3h-33.7c-35 0-63.3 28.4-63.3 63.3v14.8c0 35 28.3 63.3 63.3 63.3h60V484h3.3V290z m157.9 55.9h-31.2v111.8h-36.2c-14.5 0-26.3-11.8-26.3-26.3v-85.5h-31.2v95.4c0 23.6 19.1 42.8 42.8 42.8h82.2V345.9h-0.1z m-246.7 75.6v-13.2c0-18.2 14.7-32.9 32.9-32.9h26.3v78.9h-26.3c-18.2 0.1-32.9-14.6-32.9-32.8z" fill="#F93737" p-id="8329"></path><path d="M796.5 63C887.4 63 961 136.6 961 227.5V314L710 63h86.5z" fill="#B2E5FF" p-id="8330"></path><path d="M311.8 247.6c-16.8 24.2-29.1 51.3-36.1 80L88.2 140.1C117.3 93.8 168.8 63 227.5 63h273.2l96.8 96.8c-27-10.5-56.4-16.2-87.2-16.2-82.2 0-154.9 41.1-198.5 104z m440.3 138.1c0-30.9-5.8-60.5-16.4-87.7L955 517.3 710.2 762.1 605.4 657.3c23.7-36.9 50.3-71.7 79.6-104.1 2.2-2.3 4.4-4.7 6.6-7.2 37.6-42.7 60.5-98.8 60.5-160.3z" fill="#E6F28F" p-id="8331"></path></svg>