<?xml version="1.0" standalone="no"?><!DOCTYPE svg PUBLIC "-//W3C//DTD SVG 1.1//EN" "http://www.w3.org/Graphics/SVG/1.1/DTD/svg11.dtd"><svg t="1536717915522" class="icon" style="" viewBox="0 0 1024 1024" version="1.1" xmlns="http://www.w3.org/2000/svg" p-id="5501" xmlns:xlink="http://www.w3.org/1999/xlink" width="200" height="200"><defs><style type="text/css"></style></defs><path d="M885.18416 0H138.80016C62.35216 0 0.00016 61.232 0.00016 138.544v744.912a138.32 138.32 0 0 0 138.816 138.56h746.384c76.432 0 138.816-61.248 138.816-138.56V138.544C1024.00016 61.232 961.63216 0 885.18416 0z m0 0" fill="#FF002B" p-id="5502"></path><path d="M928.43216 1015.984a145.6 145.6 0 0 1-40.256 6.032c12.112 0 25.168-2.032 40.256-6.032z m0 0" fill="#FFFFFF" p-id="5503"></path><path d="M0.00016 138.544v678.672V138.544z m95.552 877.44c15.104 4 28.16 6.032 42.256 6.032-14.096 0-27.152-2.032-42.256-6.032z m0 0" fill="#111111" p-id="5504"></path><path d="M936.46416 970.8c0-59.216-47.248-110.432-106.624-112.432-2-2-4-2-6.032-2-2 0-4.032 0-6.032 2h13.056c17.12 8.032 30.192 55.216 30.192 112.432 0 19.088-2 36.128-4 51.216h30.16c15.088 0 28.16-2.032 40.256-6.032 7.024-15.056 9.024-30.128 9.024-45.184z m0 0" fill="#FFFFFF" p-id="5505"></path><path d="M207.21616 858.352c-2.016-2-4.032-2-6.048-2s-4.016 0-6.016 2h12.064z m0 0" fill="#111111" p-id="5506"></path><path d="M194.12816 858.352c-59.36 2-106.624 53.216-106.624 112.432 0 15.056 4.016 30.128 11.056 45.184 13.072 4 25.136 6.032 40.24 6.032h30.176c-2.016-15.088-4.016-32.128-4.016-51.216-0.992-57.2 12.064-104.4 29.168-112.432z m622.656 0c-59.344 2-106.624 53.216-106.624 112.432 0 19.088 4.032 36.128 13.056 51.216h68.4c-2-15.088-4.032-32.128-4.032-51.216 0.016-57.2 12.096-104.4 29.2-112.432zM533.12016 947.696h-42.256c-13.072 0-17.088 6.032-11.056 15.056l13.072 17.056c4.016 6.032 11.072 15.056 13.088 19.072 2 2.016 2 2.016 6.032 2.016s6.032-2.016 6.032-2.016c4.032-4.016 8.048-13.04 13.072-19.072l11.056-17.056c8.048-9.024 4.032-15.056-9.04-15.056z m-325.904-89.344c17.088 8.032 32.192 55.216 32.192 112.432 0 19.088-2.016 36.128-4.032 51.216h68.4a107.552 107.552 0 0 0 13.056-51.216c-2.992-59.2-50.272-110.432-109.616-112.432z m721.216 157.632c19.088-6.032 38.224-17.072 53.312-30.128-17.088 13.056-34.208 23.104-53.312 30.128z m0 0" fill="#FFFFFF" p-id="5507"></path><path d="M47.28016 985.856C19.10416 959.744 0.00016 923.616 0.00016 883.456V815.2v68.256c0 40.16 17.088 76.288 47.28 102.4z m48.272 30.128c-19.104-6.032-36.208-15.056-51.296-30.128 15.072 13.056 35.2 23.104 51.296 30.128z m0 0" fill="#111111" p-id="5508"></path><path d="M978.72016 683.68c-40.224-23.104-81.472 19.056-87.504 28.096-53.312 61.232-112.656 135.552-219.28 135.552H352.04816c-106.624 0-163.968-76.32-219.28-136.544-8.064-8.032-47.28-51.216-87.52-28.128C9.04016 704.752 2.00016 771.008 0.00016 815.2v70.256c0 40.16 17.088 76.32 47.28 102.4a164.528 164.528 0 0 0 51.296 30.128c-6.048-13.056-11.056-28.096-11.056-45.184 0-59.216 47.264-110.416 106.624-112.432 2.016-2 4.016-2 6.032-2s4.032 0 6.032 2c59.328 2.016 106.64 53.216 106.64 112.432 0 19.088-4.032 36.16-13.072 51.2h422.448a107.696 107.696 0 0 1-13.04-51.2c0-59.216 47.28-110.416 106.624-112.432 2-2 4-2 6.032-2 2 0 4.032 0 6.032 2 59.344 2.016 106.624 53.216 106.624 112.432 0 15.056-4.032 30.128-11.056 45.184 19.12-6.032 38.224-17.056 53.312-30.128a134.4 134.4 0 0 0 45.248-100.4v-70.256c-0.032-46.192-7.056-112.448-43.28-133.52zM544.19216 962.768l-11.056 15.056c-6.032 6.032-11.072 15.056-13.088 19.056-2.016 2.016-4.016 4.032-8.048 4.032s-6.032-2.016-6.032-2.016c-4.032-4.016-8.048-13.04-13.088-19.072l-13.072-17.056c-6.032-8.032 0-15.056 11.056-15.056h42.256c13.072-0.016 17.088 6.016 11.072 15.056z m0 0" fill="#111111" p-id="5509"></path><path d="M829.84016 858.352h-13.056c-17.088 8.032-30.192 55.216-30.192 112.432 0 19.088 2.032 36.128 4.032 51.216h66.4c2-15.088 4-32.128 4-51.216-0.992-57.2-14.048-104.4-31.184-112.432z m-622.624 0h-13.072c-17.104 8.032-32.192 55.216-32.192 112.432 0 19.088 2.016 36.128 4.016 51.216h66.384c2.016-15.088 4.032-32.128 4.032-51.216 0-57.2-12.08-104.4-29.168-112.432z m0 0" fill="#111111" p-id="5510"></path><path d="M340.99216 353.376h146.864v-38.144H336.96016V233.92h136.816v-40.176H161.95216v38.144h136.8v81.328H146.84816v38.144h146.864c-15.072 57.216-61.36 106.416-146.864 155.616l19.104 34.144c53.312-30.128 119.696-74.304 153.904-142.576 8.048 17.072 19.104 34.128 34.208 51.216 28.16 32.128 66.384 61.232 119.696 91.36l19.104-34.144c-89.52-47.184-136.784-96.368-151.872-153.6z m339.984-66.272h38.256v-32.128h83.472v32.128h38.224v-32.128h38.256v-38.144h-38.256v-23.088h-38.224v25.088h-83.472v-25.088h-38.256v25.088h-36.192v38.16h36.192v30.112z m-77.44-74.272c-21.12-21.088-55.328-21.088-74.432-19.088h-4.016v38.144h6.016c13.088 0 36.224 0 47.28 8.032 2.032 2.016 6.032 6.032 6.032 19.072v13.04l-59.328 36.144 19.12 34.128 40.224-23.088v42.16l-59.328 36.144 19.12 34.128 40.224-23.088v32.128c0 8.016-4 23.088-11.056 30.112-19.104 23.088-49.28 40.16-49.28 40.16l19.12 34.144c2 0 38.224-21.088 59.344-49.216 11.056-15.024 19.12-36.128 19.12-55.2V262.016c-1.072-21.072-7.104-36.128-18.16-49.184z m40.24 100.4v174.672c0 32.128 25.12 57.232 57.312 57.232H820.80016c32.192 0 57.344-25.104 57.344-57.232V313.232H643.77616z m98.56 191.744H702.08016c-11.056 0-19.088-8.032-19.088-19.072v-38.144h59.344v57.216z m0-96.384h-59.344v-57.216h59.344v57.216z m98.576 79.312c0 11.04-8.032 19.072-19.088 19.072h-40.256v-59.232h59.344v40.16z m0-79.312h-59.344v-57.216h59.344v57.216z m0 0" fill="#FFFFFF" p-id="5511"></path></svg>