<?xml version="1.0" standalone="no"?><!DOCTYPE svg PUBLIC "-//W3C//DTD SVG 1.1//EN" "http://www.w3.org/Graphics/SVG/1.1/DTD/svg11.dtd"><svg t="1536717934830" class="icon" style="" viewBox="0 0 1024 1024" version="1.1" xmlns="http://www.w3.org/2000/svg" p-id="6304" xmlns:xlink="http://www.w3.org/1999/xlink" width="200" height="200"><defs><style type="text/css"></style></defs><path d="M428.202667 867.159609c-190.313813 0-339.392284-93.279573-339.392285-212.359396s149.078471-212.35712 339.392285-212.35712c190.316089 0 339.396836 93.279573 339.396835 212.35712s-149.080747 212.359396-339.396835 212.359396z m0-406.512071c-87.608889 0-169.101084 20.388978-229.462471 57.409991-59.150791 36.279182-91.725369 84.841813-91.725369 136.742684s32.574578 100.465778 91.725369 136.742685c60.361387 37.023289 141.851307 57.409991 229.462471 57.409991s169.101084-20.388978 229.462471-57.409991c59.153067-36.279182 91.72992-84.841813 91.72992-136.742685S716.818204 554.336711 657.665138 518.057529C597.303751 481.036516 515.811556 460.647538 428.202667 460.647538z" fill="#FFFFFF" p-id="6305"></path><path d="M97.912604 654.800213c0 114.333013 146.088391 203.257173 330.290063 203.257174s330.294613-88.92416 330.294613-203.257174c0-114.330738-146.092942-203.254898-330.294613-203.254897-184.201671 0-330.290062 88.92416-330.290063 203.254897" fill="#FFFFFF" p-id="6306"></path><path d="M434.556018 917.97504c-103.56736 0-207.125618-26.218951-284.123591-71.937138-84.794027-50.346667-131.490702-120.515698-131.490703-197.584213 0-81.883591 55.578169-186.358898 148.675698-279.479182 86.166187-90.674062 191.244516-149.255964 267.728214-149.255965 26.610347 0 48.330524 7.654969 62.814435 22.136605 20.470898 20.470898 29.7984 67.886649 2.186809 123.867591-0.391396 1.838649-0.391396 2.933191-0.336782 3.490702 0.382293 0.091022 1.030827 0.188871 2.036622 0.188871 4.230258 0 9.627876-1.727147 11.493831-2.441671 47.854933-22.293618 94.665387-34.07872 135.388729-34.07872 42.539236 0 74.203591 12.847787 91.568356 37.157547 22.803342 30.401422 13.116302 67.779698 1.2288 103.446755-2.428018 7.286329-2.428018 7.286329 6.653724 10.952249 2.082133 0.83968 4.407751 1.779484 6.803911 2.926365 58.722987 13.428053 126.748444 60.186169 126.748445 148.384426 0 64.775964-45.9776 135.53664-122.989227 189.285262-85.881742 59.931307-201.084018 92.940516-324.387271 92.940516z m10.499413-447.547164c-15.717262 0-31.707591 0.96256-47.524978 2.860373l-0.386844 0.038684c-97.138916 7.470649-183.596373 46.780871-231.266987 105.153423-26.155236 32.026169-37.746916 66.812587-33.523484 100.59776 10.738347 91.29984 119.755662 160.096711 253.592462 160.096711 15.719538 0 31.709867-0.96256 47.527253-2.860374 75.18208-9.020302 144.05632-35.698916 193.934223-75.118364 48.70144-38.488747 73.982862-84.996551 71.206684-130.985529-10.902187-91.106418-119.844409-159.782684-253.558329-159.782684z" fill="#FFFFFF" p-id="6307"></path><path d="M752.143929 496.007396c-12.702151-6.3488-25.408853-6.3488-19.055502-25.402027 12.702151-38.11328 19.055502-69.868658 0-95.277511-31.759929-44.46208-120.684089-44.46208-215.9616 0 0 0-31.755378 12.702151-25.402027-12.706702 25.402027-50.81088 19.053227-95.277511 0-114.330738-50.815431-50.81088-196.908373 0-317.587911 127.03744-88.928711 88.92416-146.092942 190.550471-146.092942 273.125831 0 158.795093 203.257173 260.419129 406.512071 260.419129 266.77248 0 438.272-152.441742 438.272-273.125831 0-82.570809-63.515307-127.032889-120.684089-139.739591zM434.556018 845.355236c-158.795093 19.053227-298.534684-57.164231-311.23456-165.146169-12.706702-101.626311 107.979662-203.257173 273.125831-215.957049C555.240107 445.196516 694.979698 521.416249 707.681849 629.398187c6.353351 101.626311-114.333013 196.903822-273.125831 215.957049z" fill="#D52B2A" p-id="6308"></path><path d="M946.399004 481.357369c-0.002276 0 0 0 0 0a40.823467 40.823467 0 0 1-12.931982-2.118542c-25.144889-8.383147-38.832356-32.970524-31.166009-55.980943 18.691413-56.069689 4.432782-122.397582-36.324693-168.978204-32.654222-37.31456-77.644231-57.867378-126.687004-57.867378-11.776 0-23.770453 1.18784-35.660232 3.533938a40.932693 40.932693 0 0 1-12.392675 1.931947c-17.5104 0-35.114098-11.341369-48.294116-31.113671l-1.529173-2.29376v-2.755698c0-23.42912 15.9744-45.759147 37.976747-53.095538l0.973937-0.26624a284.824462 284.824462 0 0 1 59.571769-6.326044c75.766898 0 147.492409 31.100018 196.790045 85.326506l0.257138 0.295822c65.438151 78.524871 85.481244 176.872107 52.34688 256.748658-6.712889 19.731342-23.925191 32.959147-42.930632 32.959147zM739.289316 178.210133c54.369849 0 104.227271 22.757831 140.385848 64.084196 44.930844 51.350187 60.588942 124.64128 39.89504 186.722987-4.958436 14.873031 6.100764 28.435342 19.651698 32.95232a22.687289 22.687289 0 0 0 7.174827 1.185564c11.084231 0 21.683769-8.567467 25.772942-20.834987l0.234382-0.621226c30.667662-73.600569 11.785102-164.870827-49.279431-238.239289-46.519182-51.093049-111.565938-79.223467-183.189049-79.223467-18.482062 0-37.064249 1.954702-55.236835 5.811769-13.7216 4.794596-23.854649 18.325049-24.978774 32.979627 9.350258 12.98432 20.985173 20.652942 31.516445 20.652942a22.739627 22.739627 0 0 0 7.211235-1.185565l1.094543-0.291271a202.843022 202.843022 0 0 1 39.747129-3.9936z" fill="#FCFCFC" p-id="6309"></path><path d="M929.992249 197.479538c-63.515307-69.870933-158.795093-95.277511-247.719253-76.224285-19.053227 6.353351-31.755378 25.408853-31.755378 44.46208 12.702151 19.055502 31.755378 31.762204 50.81088 25.408854 63.522133-12.706702 127.03744 6.353351 171.49952 57.164231 44.46208 50.815431 57.164231 120.684089 38.108729 177.84832-6.353351 19.060053 6.353351 38.11328 25.406577 44.466631 19.055502 6.3488 38.108729-6.353351 44.46208-25.408853 31.762204-76.222009 12.702151-171.49952-50.813155-247.716978" fill="#E89214" p-id="6310"></path><path d="M825.512391 436.929422c-0.002276 0-0.002276 0 0 0-4.155164 0-8.43776-0.725902-12.734009-2.157226l-1.18784-0.49152c-21.149013-10.572231-30.198898-29.395627-23.620266-49.13152 4.817351-14.449778 1.119573-30.094222-11.639467-49.236196-7.152071-10.720142-20.33664-17.382969-34.408676-17.382969-4.355413 0-8.494649 0.643982-12.306204 1.913742l-1.401742 0.468765h-1.476836c-24.694329 0-39.54688-10.051129-46.744462-31.630222l-0.466489-1.401743v-1.476835c0-24.69888 10.051129-39.551431 31.630222-46.746738l0.780516-0.259413 0.812373-0.116054a166.616178 166.616178 0 0 1 23.451876-1.677084c40.361529 0 77.635129 15.045973 104.953173 42.366293l0.555236 0.607574c33.459769 40.152178 41.012338 88.96512 20.209208 130.578204-8.196551 16.379449-21.465316 25.772942-36.406613 25.772942z m-6.378382-19.235271c2.220942 0.684942 4.36224 1.030827 6.376107 1.030827 10.67008 0 17.189547-9.844053 20.125013-15.714987 17.678791-35.357582 11.241244-75.600782-17.649209-110.462293-23.850098-23.699911-56.429227-36.743396-91.786809-36.743396a148.184178 148.184178 0 0 0-20.045369 1.378987c-13.002524 4.555662-18.111147 12.212907-18.413795 27.720818 4.596622 12.581547 12.283449 17.524053 27.62752 17.792569 5.236053-1.572409 10.795236-2.371129 16.552391-2.371129 20.081778 0 39.071289 9.766684 49.554773 25.488497 15.908409 23.866027 20.411733 45.1584 13.764836 65.092267-4.58752 13.760284 4.871964 22.127502 13.894542 26.78784z" fill="#FCFCFC" p-id="6311"></path><path d="M834.714738 286.401422c-31.755378-31.759929-76.217458-44.46208-120.679538-38.11328-19.053227 6.353351-25.408853 19.053227-25.408853 38.11328 6.353351 19.055502 19.055502 25.408853 38.108729 25.408854 19.055502-6.353351 44.46208 0 57.168782 19.053226 12.702151 19.055502 19.055502 38.108729 12.702151 57.164231-6.353351 19.055502 6.353351 31.762204 19.053227 38.108729 19.053227 6.353351 31.759929-6.3488 38.11328-19.053226 19.055502-38.108729 12.702151-82.570809-19.057778-120.681814" fill="#E89214" p-id="6312"></path><path d="M379.24864 817.834667c-18.957653-0.002276-37.578524-2.776178-55.348338-8.242063-39.262436-13.084444-69.115449-39.385316-84.263822-74.119395-14.995911-34.388196-14.133476-73.398044 2.430293-109.841067l0.138809-0.300373 0.157014-0.291271c32.663324-59.874418 97.411982-98.561138 164.957297-98.561138a173.8752 173.8752 0 0 1 42.14784 5.16096l0.468765 0.129707C494.753564 545.559893 528.550116 572.577564 545.100231 607.8464c15.36 32.733867 15.184782 69.950578-0.512 107.624676-25.513529 61.228373-91.952924 102.363591-165.328213 102.363591h-0.011378z m-33.282276-156.219165c-19.833742 0-35.912818 8.474169-43.010275 22.664534-10.808889 21.620053-5.067662 41.280853 14.982258 51.306951 5.26336 2.630542 11.61216 4.023182 18.356906 4.023182 19.10784 0 38.308978-10.665529 45.654471-25.356516 3.813831-7.629938 7.491129-19.012267 3.347343-29.912177-3.365547-8.854187-11.24352-15.869724-23.420018-20.857743a68.28032 68.28032 0 0 0-15.910685-1.868231z m70.63552-14.037902c-2.564551 5.395342-2.612338 7.254471-2.49856 7.821084 0.063716 0.318578 0.864711 1.390364 3.622685 2.980978 6.221369-0.170667 11.871573-1.308444 15.041422-7.648142 2.646471-5.292942 2.2528-7.486578-1.39264-11.53024-4.118756 1.363058-10.50624 4.580693-14.772907 8.37632z" fill="#040000" p-id="6313"></path><path d="M447.26272 540.469476c-76.224284-19.053227-158.795093 19.060053-196.908373 88.928711-31.755378 69.864107 0 146.088391 76.224284 171.494969 82.570809 25.408853 177.84832-12.702151 209.608249-88.92416 31.755378-76.222009-6.355627-146.090667-88.92416-171.49952z m-57.168782 177.855146c-12.702151 25.402027-50.815431 38.108729-76.224285 25.402027-25.402027-12.702151-31.755378-38.108729-19.053226-63.515307 12.706702-25.408853 44.46208-31.755378 69.868657-25.408853 31.762204 12.706702 38.108729 38.11328 25.408854 63.522133z m50.815431-63.524409c-6.353351 12.706702-19.055502 12.706702-25.408853 12.706703-12.706702-6.353351-12.706702-12.706702-6.353352-25.408854 6.353351-6.353351 19.055502-12.702151 25.408854-12.702151 6.353351 6.351076 12.706702 12.704427 6.353351 25.404302z" fill="#040000" p-id="6314"></path></svg>